<?xml version="1.0" encoding="utf-8"?>
<!-- Generated by IcoMoon.io -->
<!DOCTYPE svg PUBLIC "-//W3C//DTD SVG 1.1//EN" "http://www.w3.org/Graphics/SVG/1.1/DTD/svg11.dtd">
<svg version="1.1" xmlns="http://www.w3.org/2000/svg" xmlns:xlink="http://www.w3.org/1999/xlink" width="496" height="16" viewBox="0 0 496 16">
<svg id="icon-wheelchair-accessible-black-24" width="16" height="16" viewBox="0 0 16 16" x="0" y="0">
<path fill="#000" opacity="0.1" d="M14.667 12.667h-0.667l-2.667-4h-4v-1.333h2l0.667-0.667-0.667-0.667h-2v-0.667l-0.667-0.667h-0.667l-0.667 0.667v4l1.333 1.333h4l2.667 3.333h1.333l0.667-0.667v-0.667z"></path>
<path fill="#000" opacity="0.1" d="M10.267 12.667c-0.6 1.2-1.867 2-3.267 2-2 0-3.667-1.667-3.667-3.667 0-1.133 0.533-2.133 1.333-2.8v-1.533c-1.6 0.867-2.667 2.4-2.667 4.333 0 2.733 2.267 5 5 5 1.867 0 3.467-1 4.333-2.533v-0.8h-1.067z"></path>
<path fill="#000" opacity="0.1" d="M6 1.333h1.333v0.667h0.667v1.333h-0.667v0.667h-1.333v-0.667h-0.667v-1.333h0.667z"></path>
<path fill="#000" opacity="0.2" d="M14 12h-0.667l-2.667-4h-4v-1.333h2l0.667-0.667-0.667-0.667h-2v-0.667l-0.667-0.667h-0.667l-0.667 0.667v4l1.333 1.333h4l2.667 3.333h1.333l0.667-0.667v-0.667z"></path>
<path fill="#000" opacity="0.2" d="M9.6 12c-0.6 1.2-1.867 2-3.267 2-2 0-3.667-1.667-3.667-3.667 0-1.133 0.533-2.133 1.333-2.8v-1.533c-1.6 0.867-2.667 2.4-2.667 4.333 0 2.733 2.267 5 5 5 1.867 0 3.467-1 4.333-2.533v-0.8h-1.067z"></path>
<path fill="#000" opacity="0.2" d="M5.333 0.667h1.333v0.667h0.667v1.333h-0.667v0.667h-1.333v-0.667h-0.667v-1.333h0.667z"></path>
<path fill="#000" d="M13.333 11.333h-0.667l-2.667-4h-4v-1.333h2l0.667-0.667-0.667-0.667h-2v-0.667l-0.667-0.667h-0.667l-0.667 0.667v4l1.333 1.333h4l2.667 3.333h1.333l0.667-0.667v-0.667z"></path>
<path fill="#000" d="M8.933 11.333c-0.6 1.2-1.867 2-3.267 2-2 0-3.667-1.667-3.667-3.667 0-1.133 0.533-2.133 1.333-2.8v-1.533c-1.6 0.867-2.667 2.4-2.667 4.333 0 2.733 2.267 5 5 5 1.867 0 3.467-1 4.333-2.533v-0.8h-1.067z"></path>
<path fill="#000" d="M4.667 0h1.333v0.667h0.667v1.333h-0.667v0.667h-1.333v-0.667h-0.667v-1.333h0.667z"></path>
</svg>
<svg id="icon-trailhead-black-24" width="16" height="16" viewBox="0 0 16 16" x="32" y="0">
<path fill="#000" opacity="0.1" d="M6.4 3.8c0.067-0.2-0.067-0.333-0.267-0.4l-0.933-0.2c-0.133-0.067-0.333 0.067-0.4 0.267l-0.8 3.333c-0.067 0.2 0.067 0.333 0.267 0.4l0.933 0.2c0.2 0.067 0.333-0.067 0.4-0.267l0.8-3.333z"></path>
<path fill="#000" opacity="0.1" d="M4.667 15v0.133c0 0.533 0.333 0.867 0.8 0.867 0.4 0 0.667-0.267 0.8-0.6l1.4-5.8 1.333 5.733c0.067 0.333 0.4 0.6 0.8 0.6 0.467 0 0.8-0.333 0.8-0.8 0-0.067 0-0.133 0-0.2l-1.8-7.6 0.133-0.667 0.133 0.533c0.133 0.333 0.4 0.4 0.4 0.4l1.867 0.467h0.133c0.333 0 0.533-0.267 0.533-0.533s-0.2-0.467-0.4-0.533l-1.6-0.4-0.467-1.8c-0.333-0.733-1.533-0.8-1.533-0.8-0.467 0-0.867 0.8-0.867 0.8l-2.467 10.2z"></path>
<path fill="#000" opacity="0.1" d="M9.267 3.333h-0.533c-0.4 0-0.733-0.333-0.733-0.733v-0.533c0-0.4 0.333-0.733 0.733-0.733h0.533c0.4 0 0.733 0.333 0.733 0.733v0.533c0 0.4-0.333 0.733-0.733 0.733z"></path>
<path fill="#000" opacity="0.1" d="M13.2 4.667h0.8v11.333h-0.8v-11.333z"></path>
<path fill="#000" opacity="0.2" d="M5.733 3.133c0.067-0.2-0.067-0.333-0.267-0.4l-0.933-0.2c-0.133-0.067-0.333 0.067-0.4 0.267l-0.8 3.333c-0.067 0.133 0.067 0.333 0.267 0.4l0.933 0.2c0.2 0.067 0.333-0.067 0.4-0.267l0.8-3.333z"></path>
<path fill="#000" opacity="0.2" d="M4 14.333v0.133c0 0.533 0.333 0.867 0.8 0.867 0.4 0 0.667-0.267 0.8-0.6l1.4-5.8 1.333 5.733c0.067 0.333 0.4 0.6 0.8 0.6 0.467 0 0.8-0.333 0.8-0.8 0-0.067 0-0.133 0-0.2l-1.8-7.6 0.133-0.667 0.133 0.533c0.133 0.333 0.4 0.4 0.4 0.4l1.867 0.467h0.133c0.333 0 0.533-0.267 0.533-0.533s-0.2-0.467-0.4-0.533l-1.6-0.4-0.467-1.8c-0.333-0.733-1.533-0.8-1.533-0.8-0.467 0-0.867 0.8-0.867 0.8l-2.467 10.2z"></path>
<path fill="#000" opacity="0.2" d="M8.6 2.667h-0.533c-0.4 0-0.733-0.333-0.733-0.733v-0.533c0-0.4 0.333-0.733 0.733-0.733h0.533c0.4 0 0.733 0.333 0.733 0.733v0.533c0 0.4-0.333 0.733-0.733 0.733z"></path>
<path fill="#000" opacity="0.2" d="M12.533 4h0.8v11.333h-0.8v-11.333z"></path>
<path fill="#000" d="M5.067 2.467c0.067-0.2-0.067-0.333-0.267-0.4l-0.933-0.2c-0.133-0.067-0.333 0.067-0.4 0.267l-0.8 3.333c-0.067 0.133 0.067 0.333 0.267 0.4l0.933 0.2c0.2 0.067 0.4-0.067 0.4-0.2l0.8-3.4z"></path>
<path fill="#000" d="M3.333 13.667v0.133c0 0.533 0.333 0.867 0.8 0.867 0.4 0 0.667-0.267 0.8-0.6l1.4-5.8 1.333 5.733c0.067 0.333 0.4 0.6 0.8 0.6 0.467 0 0.8-0.333 0.8-0.8 0-0.067 0-0.133 0-0.2l-1.867-7.533 0.133-0.667 0.133 0.533c0.133 0.333 0.4 0.4 0.4 0.4l1.867 0.467h0.133c0.333 0 0.533-0.267 0.533-0.533s-0.2-0.467-0.4-0.533l-1.6-0.4-0.467-1.8c-0.267-0.8-1.467-0.867-1.467-0.867-0.467 0-0.867 0.8-0.867 0.8l-2.467 10.2z"></path>
<path fill="#000" d="M7.933 2h-0.533c-0.4 0-0.733-0.333-0.733-0.733v-0.533c0-0.4 0.333-0.733 0.733-0.733h0.533c0.4 0 0.733 0.333 0.733 0.733v0.533c0 0.4-0.333 0.733-0.733 0.733z"></path>
<path fill="#000" d="M11.867 3.333h0.8v11.333h-0.8v-11.333z"></path>
</svg>
<svg id="icon-recycling-black-24" width="16" height="16" viewBox="0 0 16 16" x="64" y="0">
<path fill="#000" opacity="0.1" d="M11.333 16v-1.333h1.867c0.133 0 0.333 0 0.467-0.067s0.267-0.2 0.333-0.333c0 0 0.8-1.2 1.4-2.267-0.133 0.067-4.067 0-4.067 0v-1.8l-2.067 3.067 2.067 2.733z"></path>
<path fill="#000" opacity="0.1" d="M1.333 7.867l0.933 0.267 0.333 0.133-0.533 1.733c-0.067 0.133-0.067 0.333-0.067 0.467 0.067 0.133 0.133 0.267 0.2 0.4 0 0 0.933 1.6 1.8 2.467v-1.333l0.667-1.333 0.467-1.667 0.4 0.133 1.267 0.4-2.267-2.867-3.2 1.2z"></path>
<path fill="#000" opacity="0.1" d="M13.467 11.333c0.333 0 1.4 0 1.4 0 0.2 0 0.2 0.067 0.4 0 0.133-0.067 0.4-0.4 0.533-0.533 0.2-0.333 0.333-0.733 0.133-1.067 0 0-1.6-2.6-1.867-3.067-0.4 0.267-1.6 1.2-2 1.467 0.267 0.4 1.2 2.933 1.4 3.2z"></path>
<path fill="#000" opacity="0.1" d="M14.2 2.667l-0.8 0.533-0.333 0.133-1-1.6c-0.067-0.133-0.2-0.267-0.333-0.333-0.067 0-0.2-0.067-0.4-0.067 0 0-1.4-0.067-2.667 0 0.133 0.133 2.133 3.4 2.133 3.4l-0.4 0.267-1.133 0.667 3.667 0.133 1.267-3.133z"></path>
<path fill="#000" opacity="0.1" d="M8.667 3.667c-0.133-0.267-0.733-1.2-0.733-1.2-0.133-0.133-0.067-0.267-0.2-0.333-0.2-0.067-0.6-0.133-0.8-0.133-0.333 0-0.733 0.133-0.933 0.467 0 0-1.333 2.733-1.6 3.2 0.467 0.2 1.867 0.667 2.267 0.933 0.267-0.467 1.867-2.667 2-2.933z"></path>
<path fill="#000" opacity="0.1" d="M4.667 12c0.067 0.867 0 1.133 0 1.333s-0.067 0.467 0 0.667c0.2 0.333 0.267 0.667 0.667 0.667 0 0 2.8 0 3.333 0 0-0.533 0-2.2 0-2.667-0.533 0-3.333 0.067-4 0z"></path>
<path fill="#000" opacity="0.2" d="M10.667 15.333v-1.333h1.867c0.133 0 0.333 0 0.467-0.067s0.267-0.2 0.333-0.333c0 0 0.8-1.2 1.4-2.267-0.133 0.067-4.067 0-4.067 0v-1.8l-2.067 3.067 2.067 2.733z"></path>
<path fill="#000" opacity="0.2" d="M0.667 7.2l0.933 0.267 0.333 0.133-0.533 1.733c-0.067 0.133-0.067 0.333-0.067 0.467 0.067 0.133 0.133 0.267 0.2 0.4 0 0 0.933 1.6 1.8 2.467v-1.333l0.667-1.333 0.467-1.667 0.4 0.133 1.267 0.4-2.267-2.867-3.2 1.2z"></path>
<path fill="#000" opacity="0.2" d="M12.8 10.667c0.333 0 1.4 0 1.4 0 0.2 0 0.2 0.067 0.4 0 0.133-0.067 0.4-0.4 0.533-0.533 0.2-0.333 0.333-0.733 0.133-1.067 0 0-1.6-2.6-1.867-3.067-0.4 0.267-1.6 1.2-2 1.467 0.267 0.4 1.2 2.933 1.4 3.2z"></path>
<path fill="#000" opacity="0.2" d="M13.533 2l-0.8 0.533-0.333 0.133-1-1.6c-0.067-0.133-0.2-0.267-0.333-0.333-0.067 0-0.2-0.067-0.4-0.067 0 0-1.4-0.067-2.667 0 0.133 0.133 2.133 3.4 2.133 3.4l-0.4 0.267-1.133 0.667 3.667 0.133 1.267-3.133z"></path>
<path fill="#000" opacity="0.2" d="M8 3c-0.133-0.267-0.733-1.2-0.733-1.2-0.133-0.133-0.067-0.267-0.2-0.333-0.2-0.067-0.6-0.133-0.8-0.133-0.333 0-0.733 0.133-0.933 0.467 0 0-1.333 2.733-1.6 3.2 0.467 0.2 1.867 0.667 2.267 0.933 0.267-0.467 1.867-2.667 2-2.933z"></path>
<path fill="#000" opacity="0.2" d="M4 11.333c0.067 0.867 0 1.133 0 1.333s-0.067 0.467 0 0.667c0.2 0.333 0.267 0.667 0.667 0.667 0 0 2.8 0 3.333 0 0-0.533 0-2.2 0-2.667-0.533 0-3.333 0.067-4 0z"></path>
<path fill="#000" d="M10 14.667v-1.333h1.867c0.133 0 0.333 0 0.467-0.067s0.267-0.2 0.333-0.333c0 0 0.8-1.2 1.4-2.267-0.133 0.067-4.067 0-4.067 0v-1.8l-2.067 3.067 2.067 2.733z"></path>
<path fill="#000" d="M0 6.533l0.933 0.267 0.333 0.133-0.533 1.733c-0.067 0.133-0.067 0.333-0.067 0.467 0.067 0.133 0.133 0.267 0.2 0.4 0 0 0.933 1.6 1.8 2.467v-1.333l0.667-1.333 0.467-1.667 0.4 0.133 1.267 0.4-2.267-2.867-3.2 1.2z"></path>
<path fill="#000" d="M12.133 10c0.333 0 1.4 0 1.4 0 0.2 0 0.2 0.067 0.4 0 0.133-0.067 0.4-0.4 0.533-0.533 0.2-0.333 0.333-0.733 0.133-1.067 0 0-1.6-2.6-1.867-3.067-0.4 0.267-1.6 1.2-2 1.467 0.267 0.4 1.2 2.933 1.4 3.2z"></path>
<path fill="#000" d="M12.867 1.333l-0.8 0.533-0.333 0.133-1-1.6c-0.067-0.133-0.2-0.267-0.333-0.333-0.067 0-0.2-0.067-0.4-0.067 0 0-1.4-0.067-2.667 0 0.133 0.133 2.133 3.4 2.133 3.4l-0.4 0.267-1.133 0.667 3.667 0.133 1.267-3.133z"></path>
<path fill="#000" d="M7.333 2.333c-0.133-0.267-0.733-1.2-0.733-1.2-0.133-0.133-0.067-0.2-0.2-0.333-0.2-0.067-0.6-0.133-0.8-0.133-0.333 0-0.733 0.133-0.933 0.467 0 0-1.333 2.733-1.6 3.2 0.467 0.2 1.867 0.667 2.267 0.933 0.267-0.467 1.867-2.667 2-2.933z"></path>
<path fill="#000" d="M3.333 10.667c0.067 0.867 0 1.133 0 1.333s-0.067 0.467 0 0.667c0.2 0.333 0.267 0.667 0.667 0.667 0 0 2.8 0 3.333 0 0-0.533 0-2.2 0-2.667-0.533 0-3.333 0.067-4 0z"></path>
</svg>
<svg id="icon-picnic-area-black-24" width="16" height="16" viewBox="0 0 16 16" x="96" y="0">
<path fill="#000" opacity="0.1" d="M16 8.667h-4l-1.333-3.333h2.667v-1.333h-9.333v1.333h2.667l-1.333 3.333h-4v1.333h3.333l-1.333 3.333h1.333l1.333-3.333h5.333l1.333 3.333h1.333l-1.333-3.333h3.333v-1.333zM6.667 8.667l1.333-3.333h1.333l1.333 3.333h-4z"></path>
<path fill="#000" opacity="0.2" d="M15.333 8h-4l-1.333-3.333h2.667v-1.333h-9.333v1.333h2.667l-1.333 3.333h-4v1.333h3.333l-1.333 3.333h1.333l1.333-3.333h5.333l1.333 3.333h1.333l-1.333-3.333h3.333v-1.333zM6 8l1.333-3.333h1.333l1.333 3.333h-4z"></path>
<path fill="#000" d="M14.667 7.333h-4l-1.333-3.333h2.667v-1.333h-9.333v1.333h2.667l-1.333 3.333h-4v1.333h3.333l-1.333 3.333h1.333l1.333-3.333h5.333l1.333 3.333h1.333l-1.333-3.333h3.333v-1.333zM5.333 7.333l1.333-3.333h1.333l1.333 3.333h-4z"></path>
</svg>
<svg id="icon-pets-on-leash-black-24" width="16" height="16" viewBox="0 0 16 16" x="128" y="0">
<path fill="#000" opacity="0.1" d="M3.333 9.333v6h0.667v0.667h0.667v-0.667h0.667v-2l2 2.667h0.667l0.667-1.333-2-2.667h4v3.333h0.667v0.667h0.667v-0.667h0.667v-6.667l-2.667-1.333h-6.667l-0.667-0.667-0.667 0.667z"></path>
<path fill="#000" opacity="0.1" d="M10 6v-4h0.667v0.667l5.333 2.667v1.333l-3.333 0.667z"></path>
<path fill="#000" opacity="0.1" d="M1.333 2v1l8.667 4v-1z"></path>
<path fill="#000" opacity="0.2" d="M2.667 8.667v6h0.667v0.667h0.667v-0.667h0.667v-2l2 2.667h0.667l0.667-1.333-2-2.667h4v3.333h0.667v0.667h0.667v-0.667h0.667v-6.667l-2.667-1.333h-6.667l-0.667-0.667-0.667 0.667z"></path>
<path fill="#000" opacity="0.2" d="M9.333 5.333v-4h0.667v0.667l5.333 2.667v1.333l-3.333 0.667z"></path>
<path fill="#000" opacity="0.2" d="M0.667 1.333v1l8.667 4v-1z"></path>
<path fill="#000" d="M2 8v6h0.667v0.667h0.667v-0.667h0.667v-2l2 2.667h0.667l0.667-1.333-2-2.667h4v3.333h0.667v0.667h0.667v-0.667h0.667v-6.667l-2.667-1.333h-6.667l-0.667-0.667-0.667 0.667z"></path>
<path fill="#000" d="M8.667 4.667v-4h0.667v0.667l5.333 2.667v1.333l-3.333 0.667z"></path>
<path fill="#000" d="M0 0.667v1l8.667 4v-1z"></path>
</svg>
<svg id="icon-litter-receptacle-black-24" width="16" height="16" viewBox="0 0 16 16" x="160" y="0">
<path fill="#000" opacity="0.1" d="M8.467 6.667h-1.933c-0.733 0-0.733 0.933 0 0.933h2.133c0.133 0 0.333-0.067 0.467-0.267l0.867-1.667v9.667c0 0.4 0.267 0.667 0.667 0.667s0.667-0.267 0.667-0.667v-5.333h0.667v5.333c0 0.4 0.267 0.667 0.667 0.667s0.667-0.267 0.667-0.667v-9.333h1v3.267c0 0.733 1 0.733 1 0v-3.667c0-0.8-0.8-1.6-1.8-1.6h-0.867v0.667h-1.333v-0.667c-0.533 0-1.333 0.333-1.6 0.733l-1.267 1.933z"></path>
<path fill="#000" opacity="0.1" d="M2 10h0.667l1.333 5.333h2l1.333-5.333h0.667l-1.333 6h-3.333z"></path>
<path fill="#000" opacity="0.1" d="M11.333 1.333h1.333v0.667h0.667v1.333h-0.667v0.667h-1.333v-0.667h-0.667v-1.333h0.667z"></path>
<path fill="#000" opacity="0.1" d="M4.667 8c0 0.368-0.298 0.667-0.667 0.667s-0.667-0.298-0.667-0.667c0-0.368 0.298-0.667 0.667-0.667s0.667 0.298 0.667 0.667z"></path>
<path fill="#000" opacity="0.1" d="M6 10c0 0.368-0.298 0.667-0.667 0.667s-0.667-0.298-0.667-0.667c0-0.368 0.298-0.667 0.667-0.667s0.667 0.298 0.667 0.667z"></path>
<path fill="#000" opacity="0.1" d="M5.333 12c0 0.368-0.298 0.667-0.667 0.667s-0.667-0.298-0.667-0.667c0-0.368 0.298-0.667 0.667-0.667s0.667 0.298 0.667 0.667z"></path>
<path fill="#000" opacity="0.2" d="M7.8 6h-1.933c-0.733 0-0.733 0.933 0 0.933h2.133c0.133 0 0.333-0.067 0.467-0.267l0.867-1.667v9.667c0 0.4 0.267 0.667 0.667 0.667s0.667-0.267 0.667-0.667v-5.333h0.667v5.333c0 0.4 0.267 0.667 0.667 0.667s0.667-0.267 0.667-0.667v-9.333h1v3.267c0 0.733 1 0.733 1 0v-3.667c0-0.8-0.8-1.6-1.8-1.6h-0.867v0.667h-1.333v-0.667c-0.533 0-1.333 0.333-1.6 0.733l-1.267 1.933z"></path>
<path fill="#000" opacity="0.2" d="M1.333 9.333h0.667l1.333 5.333h2l1.333-5.333h0.667l-1.333 6h-3.333z"></path>
<path fill="#000" opacity="0.2" d="M10.667 0.667h1.333v0.667h0.667v1.333h-0.667v0.667h-1.333v-0.667h-0.667v-1.333h0.667z"></path>
<path fill="#000" opacity="0.2" d="M4 7.333c0 0.368-0.298 0.667-0.667 0.667s-0.667-0.298-0.667-0.667c0-0.368 0.298-0.667 0.667-0.667s0.667 0.298 0.667 0.667z"></path>
<path fill="#000" opacity="0.2" d="M5.333 9.333c0 0.368-0.298 0.667-0.667 0.667s-0.667-0.298-0.667-0.667c0-0.368 0.298-0.667 0.667-0.667s0.667 0.298 0.667 0.667z"></path>
<path fill="#000" opacity="0.2" d="M4.667 11.333c0 0.368-0.298 0.667-0.667 0.667s-0.667-0.298-0.667-0.667c0-0.368 0.298-0.667 0.667-0.667s0.667 0.298 0.667 0.667z"></path>
<path fill="#000" d="M7.133 5.333h-1.933c-0.733 0-0.733 0.933 0 0.933h2.133c0.133 0 0.333-0.067 0.467-0.267l0.867-1.667v9.667c0 0.4 0.267 0.667 0.667 0.667s0.667-0.267 0.667-0.667v-5.333h0.667v5.333c0 0.4 0.267 0.667 0.667 0.667s0.667-0.267 0.667-0.667v-9.333h1v3.267c0 0.733 1 0.733 1 0v-3.667c0-0.8-0.8-1.6-1.8-1.6h-0.867v0.667h-1.333v-0.667c-0.533 0-1.333 0.333-1.6 0.733l-1.267 1.933z"></path>
<path fill="#000" d="M0.667 8.667h0.667l1.333 5.333h2l1.333-5.333h0.667l-1.333 6h-3.333z"></path>
<path fill="#000" d="M10 0h1.333v0.667h0.667v1.333h-0.667v0.667h-1.333v-0.667h-0.667v-1.333h0.667z"></path>
<path fill="#000" d="M3.333 6.667c0 0.368-0.298 0.667-0.667 0.667s-0.667-0.298-0.667-0.667c0-0.368 0.298-0.667 0.667-0.667s0.667 0.298 0.667 0.667z"></path>
<path fill="#000" d="M4.667 8.667c0 0.368-0.298 0.667-0.667 0.667s-0.667-0.298-0.667-0.667c0-0.368 0.298-0.667 0.667-0.667s0.667 0.298 0.667 0.667z"></path>
<path fill="#000" d="M4 10.667c0 0.368-0.298 0.667-0.667 0.667s-0.667-0.298-0.667-0.667c0-0.368 0.298-0.667 0.667-0.667s0.667 0.298 0.667 0.667z"></path>
</svg>
<svg id="icon-horseback-riding-black-24" width="16" height="16" viewBox="0 0 16 16" x="192" y="0">
<path fill="#000" opacity="0.1" d="M14.667 6v1.333l-1.333 1.333h-1.333v-0.667h1.333l0.667-0.667v-1.333z"></path>
<path fill="#000" opacity="0.1" d="M13.333 4v-1.333l-1.333 1.333-2 2.533v-0.533l-2-0.667v-0.667l-0.667-0.667h-0.667l-0.667 0.667v2.667h-4l-0.667 0.667v3.333h0.667v-2.667l0.667-0.667h0.667l-0.667 1.333v6l0.667 0.667 0.667-0.667v-4l2 4 0.667 0.667 0.667-0.667-2-4.667h4.667v4.667l0.667 0.667 0.667-0.667v-5.333l2-4 2 0.667 0.667-0.667-2.667-2zM8 7.333v-1.333l1.867 0.6-0.533 0.733h-1.333z"></path>
<path fill="#000" opacity="0.1" d="M8 2.333c0 0.552-0.448 1-1 1s-1-0.448-1-1c0-0.552 0.448-1 1-1s1 0.448 1 1z"></path>
<path fill="#000" opacity="0.2" d="M14 5.333v1.333l-1.333 1.333h-1.333v-0.667h1.333l0.667-0.667v-1.333z"></path>
<path fill="#000" opacity="0.2" d="M12.667 3.333v-1.333l-1.333 1.333-2 2.533v-0.533l-2-0.667v-0.667l-0.667-0.667h-0.667l-0.667 0.667v2.667h-4l-0.667 0.667v3.333h0.667v-2.667l0.667-0.667h0.667l-0.667 1.333v6l0.667 0.667 0.667-0.667v-4l2 4 0.667 0.667 0.667-0.667-2-4.667h4.667v4.667l0.667 0.667 0.667-0.667v-5.333l2-4 2 0.667 0.667-0.667-2.667-2zM7.333 6.667v-1.333l1.867 0.6-0.533 0.733h-1.333z"></path>
<path fill="#000" opacity="0.2" d="M7.333 1.667c0 0.552-0.448 1-1 1s-1-0.448-1-1c0-0.552 0.448-1 1-1s1 0.448 1 1z"></path>
<path fill="#000" d="M13.333 4.667v1.333l-1.333 1.333h-1.333v-0.667h1.333l0.667-0.667v-1.333z"></path>
<path fill="#000" d="M12 2.667v-1.333l-1.333 1.333-2 2.533v-0.533l-2-0.667v-0.667l-0.667-0.667h-0.667l-0.667 0.667v2.667h-4l-0.667 0.667v3.333h0.667v-2.667l0.667-0.667h0.667l-0.667 1.333v6l0.667 0.667 0.667-0.667v-4l2 4 0.667 0.667 0.667-0.667-2-4.667h4.667v4.667l0.667 0.667 0.667-0.667v-5.333l2-4 2 0.667 0.667-0.667-2.667-2zM6.667 6v-1.333l1.867 0.6-0.533 0.733h-1.333z"></path>
<path fill="#000" d="M6.667 1c0 0.552-0.448 1-1 1s-1-0.448-1-1c0-0.552 0.448-1 1-1s1 0.448 1 1z"></path>
</svg>
<svg id="icon-fishing-black-24" width="16" height="16" viewBox="0 0 16 16" x="224" y="0">
<path fill="#000" opacity="0.1" d="M5.4 10.4l-0.067 0.133 0.067 0.133 2.6 0.667c0.133 0.067 0.133 0.667 0 0.667h-2.6l-0.067 0.067v0.067c2.867 2.267 6.133 3.2 10 3.2v-8c-6.667 0-9.933 3.067-9.933 3.067zM10 10.667h-0.667v-0.667h0.667v0.667z"></path>
<path fill="#000" opacity="0.1" d="M14 2c-2.2 0-3.8 1-6.2 3-0.067 0-0.267-0.067-0.267-0.067-0.4 0-0.667 0.333-0.667 0.667 0 0 0 0.133 0.067 0.2-0.067 0.067-1.933 1.8-1.933 1.8l-1.667 1.733c-0.133 0.133-0.467 0-0.667 0s-0.4 0-0.533-0.2c-0.133-0.133-0.2-0.333-0.2-0.533s0.067-0.4 0.267-0.6c0 0 0.133-0.067 0.2-0.133 0 0.133 0.067 0.6 0.067 0.6l1.533-1.8-1.667 0.6c-0.4 0.133-0.533 0.333-0.533 0.333-0.533 0.467-0.6 1.2-0.067 1.933 0.933 0.4 0.533 0.333 1.6 0.467l1.867-1.867c0 0 1.933-1.867 2-1.867s0.267 0.067 0.267 0.067c0.4 0 0.667-0.333 0.667-0.667 0 0 0-0.133 0-0.2 2.333-1.933 3.8-2.8 5.867-2.8 0.4 0 2 0 2 0v-0.667h-2z"></path>
<path fill="#000" opacity="0.2" d="M4.733 9.733l-0.067 0.133 0.067 0.133 2.6 0.667c0.133 0.067 0.133 0.667 0 0.667h-2.6l-0.067 0.067v0.067c2.867 2.267 6.133 3.2 10 3.2v-8c-6.667 0-9.933 3.067-9.933 3.067zM9.333 10h-0.667v-0.667h0.667v0.667z"></path>
<path fill="#000" opacity="0.2" d="M13.333 1.333c-2.2 0-3.8 1-6.2 3-0.067 0-0.267-0.067-0.267-0.067-0.4 0-0.667 0.333-0.667 0.667 0 0 0 0.133 0.067 0.2-0.067 0.067-1.933 1.8-1.933 1.8l-1.667 1.733c-0.133 0.133-0.467 0-0.667 0s-0.4 0-0.533-0.2c-0.133-0.133-0.2-0.333-0.2-0.533s0.067-0.4 0.267-0.6c0 0 0.133-0.067 0.2-0.133 0 0.133 0.067 0.6 0.067 0.6l1.533-1.8-1.667 0.6c-0.4 0.133-0.533 0.333-0.533 0.333-0.533 0.467-0.6 1.2-0.067 1.933 0.933 0.4 0.533 0.333 1.6 0.467l1.867-1.867c0 0 1.933-1.867 2-1.867s0.267 0.067 0.267 0.067c0.4 0 0.667-0.333 0.667-0.667 0 0 0-0.133 0-0.2 2.333-1.933 3.8-2.8 5.867-2.8 0.4 0 2 0 2 0v-0.667h-2z"></path>
<path fill="#000" d="M4.067 9.067l-0.067 0.133 0.067 0.133 2.6 0.667c0.133 0.067 0.133 0.667 0 0.667h-2.6l-0.067 0.067v0.067c2.867 2.267 6.133 3.2 10 3.2v-8c-6.667 0-9.933 3.067-9.933 3.067zM8.667 9.333h-0.667v-0.667h0.667v0.667z"></path>
<path fill="#000" d="M12.667 0.667c-2.2 0-3.8 1-6.2 3-0.067 0-0.267-0.067-0.267-0.067-0.4 0-0.667 0.333-0.667 0.667 0 0 0 0.133 0.067 0.2-0.2 0.067-2.067 1.867-2.067 1.867l-1.533 1.667c-0.133 0.133-0.467 0-0.667 0s-0.4 0-0.533-0.2c-0.133-0.133-0.2-0.333-0.2-0.533s0.067-0.4 0.267-0.6c0 0 0.133-0.067 0.2-0.133 0 0.133 0.067 0.6 0.067 0.6l1.533-1.8-1.667 0.6c-0.4 0.133-0.533 0.333-0.6 0.333-0.533 0.467-0.6 1.2-0.067 1.933 1 0.4 0.6 0.333 1.667 0.467l1.867-1.867c0 0 1.933-1.867 2-1.867s0.267 0.067 0.267 0.067c0.4 0 0.667-0.333 0.667-0.667 0 0 0-0.133 0-0.2 2.333-1.933 3.8-2.8 5.867-2.8 0.4 0 2 0 2 0v-0.667h-2z"></path>
</svg>
<svg id="icon-campsite-black-24" width="16" height="16" viewBox="0 0 16 16" x="256" y="0">
<path fill="#000" opacity="0.1" d="M14.667 14l-6-12-6 12h-1.333v0.667h14.667v-0.667h-1.333zM5.333 14l3.333-6.667 3.333 6.667h-6.667z"></path>
<path fill="#000" opacity="0.2" d="M14 13.333l-6-12-6 12h-1.333v0.667h14.667v-0.667h-1.333zM4.667 13.333l3.333-6.667 3.333 6.667h-6.667z"></path>
<path fill="#000" d="M13.333 12.667l-6-12-6 12h-1.333v0.667h14.667v-0.667h-1.333zM4 12.667l3.333-6.667 3.333 6.667h-6.667z"></path>
</svg>
<svg id="icon-bicycle-trail-black-32" width="16" height="16" viewBox="0 0 16 16" x="288" y="0">
<path fill="#000" opacity="0.1" d="M4 14.5c1.4 0 2.5-1.1 2.5-2.5s-1.1-2.5-2.5-2.5c-1.4 0-2.5 1.1-2.5 2.5s1.1 2.5 2.5 2.5zM1 12c0-1.65 1.35-3 3-3s3 1.35 3 3c0 1.65-1.35 3-3 3s-3-1.35-3-3z"></path>
<path fill="#000" opacity="0.1" d="M13 14.5c1.4 0 2.5-1.1 2.5-2.5s-1.1-2.5-2.5-2.5c-1.4 0-2.5 1.1-2.5 2.5s1.1 2.5 2.5 2.5zM10 12c0-1.65 1.35-3 3-3s3 1.35 3 3c0 1.65-1.35 3-3 3s-3-1.35-3-3z"></path>
<path fill="#000" opacity="0.1" d="M9.6 7.25l-0.75-1.15-1.55 1.5 1.4 0.75c0.6 0.3 0.5 0.8 0.5 0.8v3.2c0 0.35-0.3 0.65-0.65 0.65s-0.65-0.3-0.65-0.65v-2.55l-2.4-1.4c-0.3-0.15-0.5-0.5-0.5-0.85 0-0.25 0.1-0.45 0.25-0.65l2.25-2.4h1l0.5 0.5 1.4 1.65h1.9c0.7 0 0.7 0.85 0 0.85h-2l-0.7-0.25z"></path>
<path fill="#000" opacity="0.1" d="M9 2h1.5v0.5h0.5v1.5h-0.5v0.5h-1.5v-0.5h-0.5v-1.5h0.5z"></path>
<path fill="#000" opacity="0.2" d="M3.5 14c1.4 0 2.5-1.1 2.5-2.5s-1.1-2.5-2.5-2.5c-1.4 0-2.5 1.1-2.5 2.5s1.1 2.5 2.5 2.5zM0.5 11.5c0-1.65 1.35-3 3-3s3 1.35 3 3c0 1.65-1.35 3-3 3s-3-1.35-3-3z"></path>
<path fill="#000" opacity="0.2" d="M12.5 14c1.4 0 2.5-1.1 2.5-2.5s-1.1-2.5-2.5-2.5c-1.4 0-2.5 1.1-2.5 2.5s1.1 2.5 2.5 2.5zM9.5 11.5c0-1.65 1.35-3 3-3s3 1.35 3 3c0 1.65-1.35 3-3 3s-3-1.35-3-3z"></path>
<path fill="#000" opacity="0.2" d="M9.1 6.75l-0.75-1.15-1.55 1.5 1.4 0.75c0.6 0.3 0.5 0.8 0.5 0.8v3.2c0 0.35-0.3 0.65-0.65 0.65s-0.65-0.3-0.65-0.65v-2.55l-2.4-1.4c-0.3-0.15-0.5-0.5-0.5-0.85 0-0.25 0.1-0.45 0.25-0.65l2.25-2.4h1l0.5 0.5 1.4 1.65h1.9c0.7 0 0.7 0.85 0 0.85h-2l-0.7-0.25z"></path>
<path fill="#000" opacity="0.2" d="M8.5 1.5h1.5v0.5h0.5v1.5h-0.5v0.5h-1.5v-0.5h-0.5v-1.5h0.5z"></path>
<path fill="#000" d="M3 13.5c1.4 0 2.5-1.1 2.5-2.5s-1.1-2.5-2.5-2.5c-1.4 0-2.5 1.1-2.5 2.5s1.1 2.5 2.5 2.5zM0 11c0-1.65 1.35-3 3-3s3 1.35 3 3c0 1.65-1.35 3-3 3s-3-1.35-3-3z"></path>
<path fill="#000" d="M12 13.5c1.4 0 2.5-1.1 2.5-2.5s-1.1-2.5-2.5-2.5c-1.4 0-2.5 1.1-2.5 2.5s1.1 2.5 2.5 2.5zM9 11c0-1.65 1.35-3 3-3s3 1.35 3 3c0 1.65-1.35 3-3 3s-3-1.35-3-3z"></path>
<path fill="#000" d="M8.6 6.25l-0.75-1.15-1.55 1.5 1.4 0.75c0.6 0.3 0.5 0.8 0.5 0.8v3.2c0 0.35-0.3 0.65-0.65 0.65s-0.65-0.3-0.65-0.65v-2.55l-2.4-1.4c-0.3-0.15-0.5-0.5-0.5-0.85 0-0.25 0.1-0.45 0.25-0.65l2.25-2.4h1l0.5 0.5 1.4 1.65h1.9c0.7 0 0.7 0.85 0 0.85h-2l-0.7-0.25z"></path>
<path fill="#000" d="M8 1h1.5v0.5h0.5v1.5h-0.5v0.5h-1.5v-0.5h-0.5v-1.5h0.5z"></path>
</svg>
</svg>
